<svg version="1.2" xmlns="http://www.w3.org/2000/svg" viewBox="0 0 147 149" width="147" height="149">
	<style>
		.s0 { fill: #00509e } 
		.s1 { fill: #231f20 } 
	</style>
	<g>
		<path class="s0" d="m108.9 0h-72.62c-20.03 0-36.28 16.24-36.28 36.3v72.61c0 20.03 16.25 36.28 36.28 36.28h72.62c20.03 0 36.28-16.26 36.28-36.28v-72.61c0-20.06-16.25-36.3-36.28-36.3zm-72.62 36.3h72.62v72.61h-72.62z"/>
		<path fill-rule="evenodd" class="s0" d="m72.34 102.13c-16.47 0-29.78-13.31-29.78-29.78 0-16.48 13.31-29.79 29.78-29.79 16.48 0 29.79 13.31 29.79 29.79 0 16.47-13.31 29.78-29.79 29.78z"/>
	</g>
	<g>
		<path fill-rule="evenodd" class="s1" d="m274.43 0.15v7.33h19.99v93.68l-69.48-101.01h-46.43v7.33h17.56v130.37h-17.56v7.34h47.45v-7.34h-20.64v-126.21l93.78 136.42 4.88-1.5v-139.08h16.27v-2.4-4.93h-45.81-0.01z"/>
		<path fill-rule="evenodd" class="s1" d="m569.81 0.15v7.33h20.03v93.69l-69.49-101.02h-6.69-39.74-0.02v7.33h17.64v130.37h-17.62v7.34h47.46v-7.34h-20.59v-126.11l93.73 136.32 4.88-1.29v-139.29h16.27v-7.33h-45.81-0.05z"/>
		<path class="s1" d="m734.27 0.15h-0.02v7.33h19.38c0 0-0.04 84.71-0.04 100.41 0 15.7-5.01 29.56-39.86 29.56-38.23 0-38.62-16.11-38.83-36.44l0.18-93.54h20.36v-7.32h-61.22v7.33h17.69l0.18 90.66c0.21 19.72 0.62 35.75 18.9 43.56 11.5 4.73 29.59 5.54 37.17 5.54 46.27 0 55-19.04 55-39.28 0-20.24 0.04-100.48 0.04-100.48h16.47v-7.33z"/>
		<path class="s1" d="m333.4 46.56h5.96c0.41-6.96 1.04-15.6 7.81-26.48 4.88-7.78 12.01-11 19.48-11h19.56l0.2 15.52v94.71l-0.18 18.54h-22.2v7.33h67.38v-7.34h-22.22l-0.17-18.54v-94.7l0.19-15.52h17.13c8.87 0 16.72 2.15 21.71 10.59 6.37 10.68 7.19 19.7 7.8 26.89h6.17v-46.41h-128.6v46.41z"/>
	</g>
</svg>